<svg width="38" height="38" viewBox="0 0 38 38" fill="none" xmlns="http://www.w3.org/2000/svg">
<g clip-path="url(#clip0_336_4590)">
<rect width="38" height="38" rx="19" fill="white"/>
<path d="M24.756 13.2524C24.4306 12.927 23.905 12.927 23.5796 13.2524L19.5 17.3237L15.4204 13.244C15.095 12.9187 14.5694 12.9187 14.244 13.244C13.9187 13.5694 13.9187 14.095 14.244 14.4204L18.3237 18.5L14.244 22.5796C13.9187 22.905 13.9187 23.4306 14.244 23.756C14.5694 24.0813 15.095 24.0813 15.4204 23.756L19.5 19.6763L23.5796 23.756C23.905 24.0813 24.4306 24.0813 24.756 23.756C25.0813 23.4306 25.0813 22.905 24.756 22.5796L20.6763 18.5L24.756 14.4204C25.073 14.1033 25.073 13.5694 24.756 13.2524Z" fill="#252525"/>
</g>
<defs>
<clipPath id="clip0_336_4590">
<rect width="38" height="38" rx="19" fill="white"/>
</clipPath>
</defs>
</svg>
