<svg width="512" height="384" viewBox="0 0 512 384"  fill="#6661e7" xmlns="http://www.w3.org/2000/svg">
<path d="M464 384.001H48.0003C21.5317 384.001 0 362.47 0 336.001V256.001C0 247.156 7.15604 240 16.0001 240C42.4687 240 64.0004 218.469 64.0004 192C64.0004 165.532 42.4687 144 16.0001 144C7.15604 144.001 0 136.845 0 128.001V48.0003C0 21.5317 21.5317 0 48.0003 0H464.001C490.469 0 512.001 21.5317 512.001 48.0003V128.001C512.001 136.845 504.845 144.001 496.001 144.001C469.532 144.001 448.001 165.533 448.001 192.001C448.001 218.47 469.532 240.002 496.001 240.002C504.845 240.002 512.001 247.158 512.001 256.002V336.002C512 362.47 490.469 384.001 464 384.001ZM32.0002 270.391V336.001C32.0002 344.829 39.1724 352.001 48.0003 352.001H464.001C472.829 352.001 480.001 344.829 480.001 336.001V270.391C443.532 262.954 416 230.641 416 192C416 153.359 443.531 121.047 480.001 113.609V48.0003C480.001 39.1724 472.829 32.0002 464.001 32.0002H48.0003C39.1724 32.0002 32.0002 39.1724 32.0002 48.0003V113.61C68.4688 121.047 96.0006 153.36 96.0006 192.001C96.0006 230.643 68.4688 262.954 32.0002 270.391Z" fill="#6661e7"/>
<path d="M193.028 314.163L288.994 58.2539L318.957 69.4898L222.991 325.399L193.028 314.163Z" fill="#6661e7"/>
<path d="M180.309 197.387C153.84 197.387 132.309 175.856 132.309 149.387C132.309 122.918 153.84 101.387 180.309 101.387C206.778 101.387 228.309 122.918 228.309 149.387C228.309 175.856 206.778 197.387 180.309 197.387ZM180.309 133.387C171.481 133.387 164.309 140.559 164.309 149.387C164.309 158.215 171.481 165.387 180.309 165.387C189.137 165.387 196.309 158.215 196.309 149.387C196.309 140.559 189.137 133.387 180.309 133.387Z" fill="#6661e7"/>
<path d="M345.695 296.619C319.226 296.619 297.694 275.087 297.694 248.618C297.694 222.15 319.226 200.618 345.695 200.618C372.163 200.618 393.695 222.15 393.695 248.618C393.695 275.087 372.163 296.619 345.695 296.619ZM345.695 232.618C336.867 232.618 329.695 239.79 329.695 248.618C329.695 257.446 336.867 264.618 345.695 264.618C354.523 264.618 361.695 257.446 361.695 248.618C361.695 239.79 354.523 232.618 345.695 232.618Z" fill="#6661e7"/>
</svg>
