<svg width="20" height="10" viewBox="0 0 20 10" fill="none" xmlns="http://www.w3.org/2000/svg">
<path d="M19.7353 4.06899L18.316 2.49958C18.6958 2.01817 18.9157 1.67155 18.9457 1.61378C19.2255 1.16125 19.0656 0.564302 18.5958 0.294711C18.1261 0.0251192 17.5064 0.169543 17.2265 0.631699C17.1965 0.679841 14.3379 5.20512 9.98001 5.20512C5.62212 5.20512 2.97341 0.872406 2.7935 0.57393C2.65356 0.275454 2.36371 0.0540038 1.99389 0.00586247C1.43417 -0.0519071 0.954389 0.323595 0.884423 0.85315C0.834447 1.23828 1.24424 1.88337 1.69402 2.4707L0.244744 4.06899C-0.115082 4.47338 -0.0751208 5.07996 0.344675 5.42657C0.534583 5.59026 0.764471 5.66728 1.00435 5.66728C1.28422 5.66728 1.56408 5.55174 1.75399 5.33992L3.01339 3.95345C3.53314 4.46375 4.13284 4.98367 4.82251 5.45546L3.58312 7.64108C3.32325 8.10323 3.49316 8.69056 3.98292 8.95052C4.13284 9.02755 4.30277 9.06606 4.46269 9.06606C4.81252 9.06606 5.16233 8.88312 5.34225 8.56539L6.56165 6.41829C7.3013 6.73602 8.12092 6.95747 9.00049 7.06338V9.03717C9.00049 9.56673 9.45027 10 10 10C10.5497 10 10.9995 9.56673 10.9995 9.03717V7.07301C11.8791 6.9671 12.6887 6.72639 13.4283 6.40866L14.6577 8.57502C14.8377 8.89275 15.1775 9.07569 15.5373 9.07569C15.6972 9.07569 15.8672 9.03717 16.0171 8.96015C16.4968 8.70981 16.6768 8.12249 16.4169 7.6507L15.1775 5.46509C15.8871 4.9933 16.4968 4.47338 17.0166 3.96308L18.246 5.32066C18.4459 5.54211 18.7158 5.64802 18.9956 5.64802C19.2255 5.64802 19.4654 5.571 19.6553 5.40732C20.0751 5.0607 20.1151 4.45412 19.7553 4.04973L19.7353 4.06899Z" fill="#6661E7"/>
</svg>
