<svg width="16" height="16" viewBox="0 0 16 16" fill="none" xmlns="http://www.w3.org/2000/svg">
<path d="M14.26 2.96019C14.0493 2.79939 13.8034 2.69104 13.5426 2.64409C13.2818 2.59714 13.0135 2.61294 12.76 2.69019L4.43 5.00019H3.5C2.83696 5.00019 2.20107 5.26358 1.73223 5.73242C1.26339 6.20126 1 6.83715 1 7.50019C1 8.16323 1.26339 8.79911 1.73223 9.26795C2.20107 9.73679 2.83696 10.0002 3.5 10.0002H4.425H4.5V12.5002C4.5 12.898 4.65804 13.2795 4.93934 13.5608C5.22064 13.8422 5.60218 14.0002 6 14.0002C6.39782 14.0002 6.77936 13.8422 7.06066 13.5608C7.34196 13.2795 7.5 12.898 7.5 12.5002V10.9352L12.595 12.5002C12.8015 12.5841 13.0221 12.6282 13.245 12.6302C13.5804 12.6304 13.908 12.5293 14.185 12.3402C14.4401 12.1675 14.6482 11.934 14.7905 11.6608C14.9328 11.3876 15.0048 11.0832 15 10.7752V4.46519C15.0019 4.1741 14.9361 3.88656 14.8076 3.62534C14.6792 3.36412 14.4917 3.13639 14.26 2.96019ZM2 7.50019C2 7.10236 2.15804 6.72083 2.43934 6.43953C2.72064 6.15822 3.10218 6.00019 3.5 6.00019H4V9.00019H3.5C3.10218 9.00019 2.72064 8.84215 2.43934 8.56085C2.15804 8.27954 2 7.89801 2 7.50019ZM6.5 12.5002C6.5 12.6328 6.44732 12.76 6.35355 12.8537C6.25979 12.9475 6.13261 13.0002 6 13.0002C5.86739 13.0002 5.74021 12.9475 5.64645 12.8537C5.55268 12.76 5.5 12.6328 5.5 12.5002V10.3252L6.5 10.6302V12.5002ZM14 10.7752C14.0026 10.9171 13.9701 11.0575 13.9056 11.1839C13.8411 11.3104 13.7464 11.419 13.63 11.5002C13.528 11.5671 13.4107 11.6068 13.289 11.6156C13.1674 11.6243 13.0455 11.6018 12.935 11.5502L5 9.13019V5.88019L13.05 3.65019C13.1535 3.61915 13.2629 3.6134 13.369 3.63341C13.4751 3.65342 13.5749 3.69861 13.66 3.76519C13.7677 3.84692 13.8546 3.9529 13.9137 4.07453C13.9728 4.19615 14.0023 4.32999 14 4.46519V10.7752Z" fill="#F6F6F6"/>
</svg>
