<svg xmlns="http://www.w3.org/2000/svg" width="26" height="26" viewBox="0 0 26 26" fill="none">
<path d="M21.9375 3.25H18.6875V2.4375C18.6875 2.22201 18.6019 2.01535 18.4495 1.86298C18.2972 1.7106 18.0905 1.625 17.875 1.625C17.6595 1.625 17.4528 1.7106 17.3005 1.86298C17.1481 2.01535 17.0625 2.22201 17.0625 2.4375V3.25H8.9375V2.4375C8.9375 2.22201 8.8519 2.01535 8.69952 1.86298C8.54715 1.7106 8.34049 1.625 8.125 1.625C7.90951 1.625 7.70285 1.7106 7.55048 1.86298C7.3981 2.01535 7.3125 2.22201 7.3125 2.4375V3.25H4.0625C3.41603 3.25 2.79605 3.50681 2.33893 3.96393C1.88181 4.42105 1.625 5.04103 1.625 5.6875V21.9375C1.625 22.584 1.88181 23.204 2.33893 23.6611C2.79605 24.1182 3.41603 24.375 4.0625 24.375H21.9375C22.584 24.375 23.204 24.1182 23.6611 23.6611C24.1182 23.204 24.375 22.584 24.375 21.9375V5.6875C24.375 5.04103 24.1182 4.42105 23.6611 3.96393C23.204 3.50681 22.584 3.25 21.9375 3.25ZM4.0625 4.875H21.9375C22.153 4.875 22.3597 4.9606 22.512 5.11298C22.6644 5.26535 22.75 5.47201 22.75 5.6875V8.125H3.25V5.6875C3.25 5.47201 3.3356 5.26535 3.48798 5.11298C3.64035 4.9606 3.84701 4.875 4.0625 4.875ZM21.9375 22.75H4.0625C3.84701 22.75 3.64035 22.6644 3.48798 22.512C3.3356 22.3597 3.25 22.153 3.25 21.9375V9.75H22.75V21.9375C22.75 22.153 22.6644 22.3597 22.512 22.512C22.3597 22.6644 22.153 22.75 21.9375 22.75Z" fill="#424649"/>
<path d="M16.5344 12.3833L11.4156 16.7708L9.50952 14.8655C9.35628 14.7175 9.15104 14.6356 8.93801 14.6375C8.72497 14.6393 8.52119 14.7248 8.37054 14.8754C8.2199 15.0261 8.13445 15.2298 8.1326 15.4429C8.13075 15.6559 8.21264 15.8612 8.36065 16.0144L10.7981 18.4519C10.9429 18.5964 11.1368 18.681 11.3412 18.6889C11.5455 18.6967 11.7453 18.6272 11.9007 18.4941L17.5882 13.6191C17.6738 13.5512 17.7449 13.4668 17.7971 13.3708C17.8493 13.2748 17.8816 13.1692 17.8921 13.0605C17.9026 12.9517 17.891 12.8419 17.8581 12.7377C17.8251 12.6335 17.7715 12.537 17.7005 12.454C17.6294 12.371 17.5423 12.3032 17.4444 12.2547C17.3465 12.2061 17.2398 12.1778 17.1307 12.1714C17.0216 12.1651 16.9124 12.1807 16.8095 12.2176C16.7066 12.2544 16.6122 12.3116 16.532 12.3858L16.5344 12.3833Z" fill="#424649"/>
</svg>