<svg width="34" height="34" viewBox="0 0 34 34" fill="none" xmlns="http://www.w3.org/2000/svg">
<g clip-path="url(#clip0_30_10)">
<mask id="mask0_30_10" style="mask-type:luminance" maskUnits="userSpaceOnUse" x="3" y="3" width="27" height="27">
<path d="M30 3H3V30H30V3Z" fill="white"/>
</mask>
<g mask="url(#mask0_30_10)">
<path d="M14.7105 25.0345C12.9239 26.8871 10.0145 27.058 8.02339 25.4272C6.83759 24.4006 6.23188 22.8568 6.40309 21.2977C6.55135 20.1482 7.0886 19.084 7.9255 18.2821L11.1616 15.0438C11.8205 14.3848 11.8205 13.3164 11.1616 12.6572C10.5025 11.9984 9.43414 11.9984 8.77505 12.6572L5.6076 15.8259C4.16377 17.2182 3.25325 19.0722 3.0342 21.0659C2.62507 25.5565 5.93366 29.5284 10.4242 29.9376C12.8357 30.1574 15.2204 29.2952 16.9339 27.5843L20.3185 24.2008C20.9775 23.5417 20.9775 22.4733 20.3185 21.8142C19.6595 21.1553 18.5911 21.1553 17.932 21.8142L14.7105 25.0345Z" fill="#333333"/>
<path d="M26.8062 4.65008C23.4461 2.18134 18.7801 2.56838 15.8726 5.55702L12.687 8.74363C12.0282 9.40271 12.0282 10.4711 12.687 11.1302C13.3461 11.7891 14.4146 11.7891 15.0737 11.1302L18.3098 7.89745C20.0573 6.09006 22.8847 5.88646 24.8731 7.42486C26.9198 9.10307 27.2184 12.1226 25.5402 14.1693C25.442 14.289 25.338 14.404 25.2287 14.5137L21.844 17.8984C21.1851 18.5574 21.1851 19.6258 21.844 20.2849C22.5031 20.9438 23.5714 20.9438 24.2306 20.2849L27.6153 16.9002C30.8016 13.7036 30.7935 8.52917 27.5968 5.34272C27.3484 5.09514 27.0844 4.8638 26.8062 4.65008Z" fill="#333333"/>
<path d="M12.6872 17.9015L17.9313 12.6575C18.5904 11.9983 19.6591 11.9983 20.3183 12.6575C20.9774 13.3166 20.9774 14.3852 20.3183 15.0444L15.0742 20.2885C14.415 20.9476 13.3463 20.9476 12.6872 20.2885C12.0281 19.6294 12.0281 18.5607 12.6872 17.9015Z" fill="#333333"/>
</g>
</g>
<defs>
<clipPath id="clip0_30_10">
<rect width="27" height="27" fill="white" transform="translate(3 3)"/>
</clipPath>
</defs>
</svg>
