<svg width="34" height="34" viewBox="0 0 34 34" fill="none" xmlns="http://www.w3.org/2000/svg">
<g clip-path="url(#clip0_1255_3428)">
<path d="M14.7466 27.7473C12.4968 30.0802 8.83306 30.2954 6.32575 28.2418C4.83252 26.949 4.06977 25.005 4.28537 23.0417C4.47207 21.5942 5.14861 20.2541 6.20248 19.2443L10.2776 15.1664C11.1073 14.3365 11.1073 12.9911 10.2776 12.1611C9.44763 11.3314 8.10225 11.3314 7.27228 12.1611L3.28364 16.1512C1.46549 17.9045 0.318909 20.2392 0.0430718 22.7498C-0.472138 28.4046 3.69424 33.4063 9.349 33.9216C12.3857 34.1983 15.3886 33.1126 17.5464 30.9581L21.8085 26.6974C22.6383 25.8674 22.6383 24.522 21.8085 23.6921C20.9786 22.8624 19.6332 22.8624 18.8032 23.6921L14.7466 27.7473Z" fill="#333333"/>
<path d="M29.9781 2.07817C25.7468 -1.03062 19.8711 -0.54324 16.2098 3.22024L12.1984 7.233C11.3687 8.06296 11.3687 9.40834 12.1984 10.2383C13.0284 11.068 14.3738 11.068 15.2038 10.2383L19.2789 6.16744C21.4795 3.89147 25.0399 3.63509 27.5438 5.57233C30.1211 7.68564 30.4972 11.488 28.3839 14.0653C28.2602 14.2161 28.1293 14.3609 27.9916 14.499L23.7294 18.7612C22.8997 19.5911 22.8997 20.9365 23.7294 21.7665C24.5594 22.5962 25.9047 22.5962 26.7347 21.7665L30.9969 17.5043C35.0094 13.4789 34.9991 6.96294 30.9737 2.95038C30.6609 2.63861 30.3284 2.3473 29.9781 2.07817Z" fill="#333333"/>
<path d="M12.1987 18.7649L18.8024 12.1613C19.6324 11.3312 20.9781 11.3312 21.8082 12.1613C22.6382 12.9913 22.6382 14.337 21.8082 15.167L15.2045 21.7707C14.3744 22.6007 13.0287 22.6007 12.1987 21.7707C11.3687 20.9407 11.3687 19.595 12.1987 18.7649Z" fill="#333333"/>
</g>
<defs>
<clipPath id="clip0_1255_3428">
<rect width="34" height="34" fill="white"/>
</clipPath>
</defs>
</svg>
