<svg width="116" height="116" viewBox="0 0 116 116" fill="none" xmlns="http://www.w3.org/2000/svg">
<path d="M25 81.0426C26.2108 94.8549 37.3778 104.657 54.3778 105.925V116H62.9105V105.925C81.4812 104.441 93 94.0097 93 78.5817C93 65.4074 85.2526 57.7846 68.8171 53.4926L62.9105 51.9431V20.4409C72.0895 21.3523 78.2825 26.3569 79.845 33.8306H91.871C90.513 20.5734 79.2724 11.0614 62.9105 10.0091V0H54.3778V10.2163C38.5149 12.122 27.6261 22.4129 27.6261 36.366C27.6261 48.4134 35.5289 56.9394 49.3956 60.5354L54.3859 61.8777V95.2774C44.986 93.8689 38.5149 88.6489 36.9524 81.0426H25ZM52.7416 49.2586C44.2089 47.0794 39.6521 42.4229 39.6521 35.8689C39.6521 28.0471 45.4115 22.272 54.3778 20.7226V49.6811L52.7416 49.2586ZM65.7575 64.7694C76.2863 67.4457 80.9086 71.8869 80.9086 79.4269C80.9086 88.5163 74.1511 94.5731 62.9105 95.4929V64.0486L65.7575 64.7694Z" fill="white"/>
</svg>
