<?xml version="1.0" encoding="UTF-8" standalone="no"?>
<!-- Created with Inkscape (http://www.inkscape.org/) -->

<svg
   version="1.1"
   id="svg2316"
   xml:space="preserve"
   width="682.66669"
   height="682.66669"
   viewBox="0 0 682.66669 682.66669"
   xmlns="http://www.w3.org/2000/svg"
   xmlns:svg="http://www.w3.org/2000/svg"><defs
     id="defs2320"><clipPath
       clipPathUnits="userSpaceOnUse"
       id="clipPath2330"><path
         d="M 0,512 H 512 V 0 H 0 Z"
         id="path2328" /></clipPath></defs><g
     id="g2322"
     transform="matrix(1.3333333,0,0,-1.3333333,0,682.66667)"><g
       id="g2324"><g
         id="g2326"
         clip-path="url(#clipPath2330)"><g
           id="g2332"
           transform="translate(213.5396,298.46)"><path
             d="m 0,0 c -11.725,-11.725 -30.735,-11.725 -42.46,0 -11.726,11.726 -11.726,30.735 0,42.461 11.725,11.725 30.735,11.725 42.46,0 C 11.725,30.735 11.725,11.726 0,0 Z"
             style="fill:none;stroke:#000000;stroke-width:30;stroke-linecap:butt;stroke-linejoin:miter;stroke-miterlimit:10;stroke-dasharray:none;stroke-opacity:1"
             id="path2334" /></g><g
           id="g2336"
           transform="translate(340.9209,171.0791)"><path
             d="m 0,0 c -11.725,-11.725 -30.735,-11.725 -42.46,0 -11.726,11.726 -11.726,30.735 0,42.461 11.725,11.725 30.735,11.725 42.46,0 C 11.725,30.735 11.725,11.726 0,0 Z"
             style="fill:none;stroke:#000000;stroke-width:30;stroke-linecap:butt;stroke-linejoin:miter;stroke-miterlimit:10;stroke-dasharray:none;stroke-opacity:1"
             id="path2338" /></g><g
           id="g2340"
           transform="translate(160.4644,160.4639)"><path
             d="M 0,0 191.071,191.072"
             style="fill:none;stroke:#000000;stroke-width:30;stroke-linecap:butt;stroke-linejoin:miter;stroke-miterlimit:10;stroke-dasharray:none;stroke-opacity:1"
             id="path2342" /></g><g
           id="g2344"
           transform="translate(445,256)"><path
             d="M 0,0 C 0,28.719 23.281,52 52,52 V 153.763 H -430 V 52 c 28.719,0 52,-23.281 52,-52 0,-28.719 -23.281,-52 -52,-52 V -153.763 H 52 V -52 C 23.281,-52 0,-28.719 0,0 Z"
             style="fill:none;stroke:#000000;stroke-width:30;stroke-linecap:butt;stroke-linejoin:miter;stroke-miterlimit:10;stroke-dasharray:none;stroke-opacity:1"
             id="path2346" /></g></g></g></g></svg>