<svg width="23" height="23" viewBox="0 0 23 23" fill="none" xmlns="http://www.w3.org/2000/svg">
<path d="M8.875 13H14.125C14.3571 13 14.5796 12.9473 14.7437 12.8536C14.9078 12.7598 15 12.6326 15 12.5C15 12.3674 14.9078 12.2402 14.7437 12.1464C14.5796 12.0527 14.3571 12 14.125 12H8.875C8.64294 12 8.42038 12.0527 8.25628 12.1464C8.09219 12.2402 8 12.3674 8 12.5C8 12.6326 8.09219 12.7598 8.25628 12.8536C8.42038 12.9473 8.64294 13 8.875 13Z" fill="#252525"/>
<path d="M18.2083 1H4.79167C3.5213 1.00139 2.30341 1.46277 1.40513 2.28294C0.506845 3.10311 0.0015217 4.2151 0 5.375L0 6.25C0.00027869 6.61902 0.0857716 6.98385 0.2509 7.32067C0.416029 7.65749 0.657083 7.95873 0.958333 8.20475V17.625C0.959855 18.7849 1.46518 19.8969 2.36346 20.7171C3.26174 21.5372 4.47964 21.9986 5.75 22H17.25C18.5204 21.9986 19.7383 21.5372 20.6365 20.7171C21.5348 19.8969 22.0401 18.7849 22.0417 17.625V8.20475C22.3429 7.95873 22.584 7.65749 22.7491 7.32067C22.9142 6.98385 22.9997 6.61902 23 6.25V5.375C22.9985 4.2151 22.4932 3.10311 21.5949 2.28294C20.6966 1.46277 19.4787 1.00139 18.2083 1ZM1.91667 5.375C1.91667 4.67881 2.21957 4.01113 2.75873 3.51884C3.2979 3.02656 4.02917 2.75 4.79167 2.75H18.2083C18.9708 2.75 19.7021 3.02656 20.2413 3.51884C20.7804 4.01113 21.0833 4.67881 21.0833 5.375V6.25C21.0833 6.48206 20.9824 6.70462 20.8026 6.86872C20.6229 7.03281 20.3792 7.125 20.125 7.125H2.875C2.62083 7.125 2.37708 7.03281 2.19736 6.86872C2.01763 6.70462 1.91667 6.48206 1.91667 6.25V5.375ZM20.125 17.625C20.125 18.3212 19.8221 18.9889 19.2829 19.4812C18.7438 19.9734 18.0125 20.25 17.25 20.25H5.75C4.9875 20.25 4.25624 19.9734 3.71707 19.4812C3.1779 18.9889 2.875 18.3212 2.875 17.625V8.875H20.125V17.625Z" fill="#252525"/>
</svg>
